<?xml version="1.0" encoding="utf-8"?>
<!DOCTYPE svg PUBLIC "-//W3C//DTD SVG 1.1//EN" "http://www.w3.org/Graphics/SVG/1.1/DTD/svg11.dtd">
<svg version="1.1" xmlns="http://www.w3.org/2000/svg" xmlns:xlink="http://www.w3.org/1999/xlink" width="100px" height="100px" viewBox="0 0 100 100">
<path stroke-linecap="round" d="M10 10L90 10 90 90 10 90M10 80L10 20M20 20L70 20M80 10L80 30M10 60L20 60 20 30M20 90L20 70M90 40L70 40 70 30M30 20L30 30 60 30M20 40L30 40 30 80M40 40L40 80M30 70L40 70M50 40L60 40 60 50M60 60L60 90M40 80L50 80 50 50M90 50L70 50 70 70M70 90L70 80 80 80M90 70L80 70 80 60" fill="none" stroke="#000" stroke-width="2"/></svg>
